HIERARCHY
ROOT Hips
{
 OFFSET 0.000000 0.000000 0.000000
 CHANNELS 6 Xposition Yposition Zposition Yrotation Xrotation Zrotation
 JOINT Chest
 {
  OFFSET 0.000000 9.585900 0.002600
  CHANNELS 3 Yrotation Xrotation Zrotation
  JOINT Chest2
  {
   OFFSET 0.000000 9.601200 -0.005300
   CHANNELS 3 Yrotation Xrotation Zrotation
   JOINT Chest3
   {
    OFFSET 0.000000 9.561800 0.000000
    CHANNELS 3 Yrotation Xrotation Zrotation
    JOINT Chest4
    {
     OFFSET 0.000000 9.552100 0.000000
     CHANNELS 3 Yrotation Xrotation Zrotation
     JOINT Neck
     {
      OFFSET 0.000000 14.453000 0.000000
      CHANNELS 3 Yrotation Xrotation Zrotation
      JOINT Head
      {
       OFFSET 0.000000 8.936500 -0.011300
       CHANNELS 3 Yrotation Xrotation Zrotation
       End Site
       {
        OFFSET 0.000000 17.073600 -0.006000
       }
      }
     }
     JOINT RightCollar
     {
      OFFSET -2.921100 9.558500 0.000000
      CHANNELS 3 Yrotation Xrotation Zrotation
      JOINT RightShoulder
      {
       OFFSET -13.519700 0.000000 0.000000
       CHANNELS 3 Yrotation Xrotation Zrotation
       JOINT RightElbow
       {
        OFFSET 0.000000 -29.696600 0.000000
        CHANNELS 3 Yrotation Xrotation Zrotation
        JOINT RightWrist
        {
         OFFSET 0.000000 -24.004700 0.000000
         CHANNELS 3 Yrotation Xrotation Zrotation
         End Site
         {
          OFFSET 0.000000 -17.728500 0.000000
         }
        }
       }
      }
     }
     JOINT LeftCollar
     {
      OFFSET 2.921100 9.558500 0.000000
      CHANNELS 3 Yrotation Xrotation Zrotation
      JOINT LeftShoulder
      {
       OFFSET 13.519700 0.000000 0.000000
       CHANNELS 3 Yrotation Xrotation Zrotation
       JOINT LeftElbow
       {
        OFFSET 0.000000 -29.696600 0.000000
        CHANNELS 3 Yrotation Xrotation Zrotation
        JOINT LeftWrist
        {
         OFFSET 0.000000 -24.004700 0.000000
         CHANNELS 3 Yrotation Xrotation Zrotation
         End Site
         {
          OFFSET 0.000000 -17.728500 0.000000
         }
        }
       }
      }
     }
    }
   }
  }
 }
 JOINT RightHip
 {
  OFFSET -7.771700 -0.012900 -0.001300
  CHANNELS 3 Yrotation Xrotation Zrotation
  JOINT RightKnee
  {
   OFFSET 0.000000 -40.869800 0.001200
   CHANNELS 3 Yrotation Xrotation Zrotation
   JOINT RightAnkle
   {
    OFFSET 0.000000 -39.717900 0.002100
    CHANNELS 3 Yrotation Xrotation Zrotation
    JOINT RightToe
    {
     OFFSET 0.000000 -4.965400 11.033500
     CHANNELS 3 Yrotation Xrotation Zrotation
     End Site
     {
      OFFSET 0.000000 -1.423100 5.872300
     }
    }
   }
  }
 }
 JOINT LeftHip
 {
  OFFSET 7.771700 -0.012900 -0.001300
  CHANNELS 3 Yrotation Xrotation Zrotation
  JOINT LeftKnee
  {
   OFFSET 0.000000 -40.869800 0.001200
   CHANNELS 3 Yrotation Xrotation Zrotation
   JOINT LeftAnkle
   {
    OFFSET 0.000000 -39.717900 0.002100
    CHANNELS 3 Yrotation Xrotation Zrotation
    JOINT LeftToe
    {
     OFFSET 0.000000 -4.965400 11.033500
     CHANNELS 3 Yrotation Xrotation Zrotation
     End Site
     {
      OFFSET 0.000000 -1.423100 5.872300
     }
    }
   }
  }
 }
}
MOTION
Frames: 16
Frame Time: 0.008333
-0.210763 50.109413 39.244972 173.334478 -34.502830 -7.157640 5.036628 19.130292 6.799631 0.516743 2.446724 0.628678 0.900304 4.018413 1.030252 4.258739 16.496463 4.795188 -1.873591 17.718120 1.286828 -3.956289 -2.851545 3.059425 -0.015861 -2.479583 -6.246508 4.917441 -1.122273 1.511449 86.811415 -73.425035 -96.811262 -0.363872 -9.699715 -12.821151 -8.484999 -0.401948 0.173904 0.758580 -2.862051 -1.405796 -113.486378 -71.173809 121.266211 17.457717 -12.410245 -0.028144 0.068576 -45.944800 9.659649 -96.291021 83.257604 -83.782237 -0.208392 -11.187391 -5.053008 -0.241516 1.156660 -0.130542 -11.390645 -50.278377 17.829194 -146.294027 83.647582 -154.199154 0.252248 -13.048564 6.553002 -0.321035 -0.666187 -0.135782
-0.211056 50.111946 39.246242 173.350829 -34.507174 -7.175586 5.004300 19.134203 6.808917 0.520495 2.435030 0.626724 0.887157 4.012818 1.033497 4.244919 16.493776 4.796142 -1.851485 17.727798 1.282061 -3.893028 -2.862957 3.027040 0.014104 -2.452498 -6.248964 4.849761 -1.156169 1.452538 87.458561 -73.585846 -97.497331 -0.425393 -9.741638 -12.709693 -8.501570 -0.366573 0.138111 0.811063 -2.967682 -1.306233 -113.625140 -71.056315 121.394886 17.480711 -12.319137 -0.199920 0.047422 -45.938121 9.671852 -96.281636 83.264330 -83.775677 -0.207024 -11.183367 -5.057880 -0.285026 1.148245 -0.122856 -11.410332 -50.272505 17.833639 -146.300046 83.649587 -154.201115 0.257745 -13.050572 6.553575 -0.319838 -0.662676 -0.140990
-0.215012 50.114216 39.247097 173.357141 -34.512364 -7.164405 4.971585 19.114090 6.792735 0.530127 2.448300 0.623228 0.883695 3.999107 1.033691 4.229003 16.483754 4.799365 -1.835317 17.740858 1.283081 -3.795123 -2.907355 2.991090 0.028574 -2.409534 -6.240335 4.803089 -1.184104 1.406365 88.155959 -73.822004 -98.260487 -0.513217 -9.776050 -12.577570 -8.562199 -0.287852 0.079874 0.888793 -3.102385 -1.183236 -113.843130 -70.978415 121.598765 17.499392 -12.152850 -0.412158 0.057067 -45.934525 9.665614 -96.279330 83.257033 -83.771410 -0.309979 -11.197878 -5.036073 -0.275288 1.148607 -0.128662 -11.393036 -50.269648 17.800434 -146.322108 83.655844 -154.220563 0.253098 -13.045217 6.552682 -0.319658 -0.666157 -0.141018
-0.218374 50.116641 39.248607 173.366953 -34.516403 -7.158091 4.957961 19.115127 6.780714 0.535559 2.422521 0.622698 0.880816 3.991025 1.033360 4.216702 16.484889 4.803535 -1.811065 17.684773 1.281987 -3.771593 -2.859227 2.969969 0.019594 -2.362822 -6.197995 4.736725 -1.234582 1.336032 88.881399 -74.159095 -99.024891 -0.627320 -9.805820 -12.421775 -8.602186 -0.231458 0.041388 0.932679 -3.218160 -1.080678 -114.140645 -70.938777 121.873943 17.508734 -11.912285 -0.671922 0.058921 -45.929865 9.658693 -96.270777 83.251148 -83.762138 -0.380184 -11.208323 -5.019622 -0.296968 1.147389 -0.135699 -11.383922 -50.267236 17.775282 -146.323788 83.661734 -154.221006 0.246778 -13.037915 6.551927 -0.313296 -0.669149 -0.139111
-0.222141 50.119422 39.250277 173.391879 -34.521142 -7.156937 4.936566 19.098170 6.767036 0.546688 2.402633 0.619678 0.879179 3.989503 1.032756 4.218868 16.466698 4.805495 -1.819382 17.719505 1.288406 -3.743274 -2.886095 2.947869 -0.059309 -2.251449 -6.061394 4.677918 -1.340066 1.184804 89.672467 -74.605247 -99.823555 -0.762640 -9.828863 -12.245968 -8.671733 -0.150688 0.009145 0.977263 -3.335486 -0.986059 -114.518876 -70.931097 122.209042 17.504319 -11.605322 -0.967573 0.046259 -45.923253 9.647794 -96.279600 83.249546 -83.774568 -0.433009 -11.208859 -5.006368 -0.317482 1.136375 -0.142766 -11.382749 -50.262618 17.744108 -146.311231 83.669848 -154.207822 0.239622 -13.032768 6.553321 -0.304355 -0.668210 -0.138442
-0.223380 50.122057 39.253828 173.398419 -34.521667 -7.160674 4.944579 19.065206 6.769734 0.557133 2.394065 0.615969 0.880907 3.979696 1.032012 4.234780 16.429975 4.806516 -1.846608 17.772752 1.304701 -3.718677 -2.919997 2.916963 -0.135701 -2.135457 -5.960834 4.603443 -1.425403 1.093549 90.604318 -75.150898 -100.771650 -0.906251 -9.838140 -12.061947 -8.764806 -0.045023 -0.015762 1.022028 -3.461326 -0.903704 -114.976018 -70.947774 122.598920 17.492207 -11.238306 -1.290210 0.020195 -45.917166 9.647012 -96.244355 83.264784 -83.752939 -0.368665 -11.201711 -5.021381 -0.316599 1.132443 -0.141074 -11.381470 -50.261864 17.734291 -146.314261 83.678335 -154.204720 0.239039 -13.030361 6.551129 -0.302144 -0.665395 -0.138125
-0.223259 50.125047 39.257871 173.398465 -34.524203 -7.168002 4.972256 19.028636 6.781300 0.562871 2.388963 0.612359 0.873964 3.981348 1.034304 4.234683 16.431180 4.813274 -1.797937 17.689527 1.264333 -3.745899 -2.873287 2.931403 -0.191636 -2.061182 -5.863823 4.525399 -1.524607 1.000498 91.675196 -75.801602 -101.839705 -1.042538 -9.826581 -11.883989 -8.834001 0.016480 -0.045829 1.068137 -3.569495 -0.839836 -115.557629 -70.972695 123.117975 17.483190 -10.829544 -1.647637 0.000710 -45.911355 9.653572 -96.207777 83.275598 -83.721999 -0.292124 -11.190800 -5.052048 -0.283851 1.127833 -0.126907 -11.372872 -50.257080 17.724671 -146.341279 83.689500 -154.217036 0.244673 -13.038979 6.547316 -0.306129 -0.653578 -0.140398
-0.224499 50.128747 39.260461 173.406439 -34.535522 -7.169273 5.025956 18.967845 6.780546 0.532744 2.419433 0.621280 0.877716 3.974574 1.034037 4.228229 16.435626 4.824283 -1.763528 17.643104 1.233711 -3.751844 -2.875658 2.927167 -0.252190 -1.978312 -5.759152 4.501435 -1.603931 0.906250 93.041845 -76.569946 -103.242541 -1.165302 -9.791589 -11.715786 -8.904611 0.084404 -0.075626 1.110779 -3.630969 -0.793900 -116.349405 -70.997884 123.863138 17.482352 -10.395216 -2.026531 -0.007073 -45.897082 9.650622 -96.181619 83.277548 -83.698979 -0.262627 -11.187492 -5.054165 -0.286570 1.123522 -0.130939 -11.362612 -50.242328 17.703175 -146.350733 83.700123 -154.219723 0.246400 -13.047201 6.545589 -0.306840 -0.643987 -0.140868
-0.226336 50.133204 39.261235 173.428432 -34.555701 -7.172068 5.021884 18.975291 6.772258 0.533837 2.417693 0.621191 0.901393 3.951014 1.026959 4.249338 16.415127 4.828583 -1.773165 17.643023 1.229598 -3.737412 -2.913797 2.905275 -0.343278 -1.862958 -5.633832 4.415048 -1.753853 0.828546 94.551200 -77.476332 -104.704868 -1.282761 -9.741041 -11.551715 -9.003829 0.188409 -0.092206 1.160270 -3.860488 -0.735796 -116.871509 -71.164242 124.345639 17.505085 -9.942468 -2.450279 -0.018863 -45.871558 9.641133 -96.190114 83.274353 -83.710709 -0.240893 -11.188891 -5.050898 -0.294781 1.117210 -0.137490 -11.356384 -50.219662 17.671317 -146.377552 83.711941 -154.239461 0.239723 -13.045164 6.539001 -0.299334 -0.646863 -0.137090
-0.225179 50.135874 39.264523 173.428989 -34.558484 -7.180384 5.036119 18.964464 6.779239 0.534894 2.416432 0.621181 0.905374 3.951010 1.026977 4.275060 16.389202 4.824220 -1.781335 17.635511 1.226108 -3.715339 -2.969824 2.877416 -0.417456 -1.752355 -5.512468 4.351854 -1.922404 0.767403 96.515869 -78.538093 -106.624793 -1.410251 -9.680837 -11.394041 -9.085129 0.292265 -0.108732 1.198245 -4.048771 -0.709100 -117.662726 -71.362426 125.147729 17.554756 -9.477612 -2.918534 -0.042070 -45.862306 9.663549 -96.094118 83.278342 -83.623631 -0.214752 -11.192680 -5.054213 -0.299509 1.122303 -0.140776 -11.363319 -50.213638 17.678970 -146.428402 83.720639 -154.285682 0.232214 -13.047149 6.534704 -0.297294 -0.644244 -0.135800
-0.224945 50.138186 39.266186 173.442565 -34.561041 -7.187071 5.041500 18.956070 6.781275 0.535203 2.415969 0.620953 0.893668 3.963006 1.028249 4.291430 16.379583 4.816610 -1.782857 17.609444 1.224951 -3.692860 -3.040824 2.848771 -0.467994 -1.655801 -5.402373 4.346599 -2.047966 0.689328 99.548290 -79.777936 -109.645381 -1.553561 -9.604503 -11.255752 -9.143411 0.387399 -0.125873 1.230454 -4.222094 -0.704970 -118.812112 -71.614544 126.237895 17.601997 -9.002282 -3.316419 -0.078356 -45.853492 9.686017 -96.056371 83.275804 -83.604036 -0.197420 -11.197603 -5.064706 -0.301326 1.125429 -0.133891 -11.365344 -50.207759 17.666608 -146.520161 83.735046 -154.370365 0.222974 -13.052150 6.530573 -0.298563 -0.637016 -0.134980
-0.223780 50.139972 39.266610 173.444178 -34.562329 -7.188930 5.043801 18.955318 6.778567 0.532930 2.429814 0.622380 0.892456 3.957898 1.031668 4.293083 16.373950 4.815218 -1.777680 17.583445 1.218887 -3.678641 -3.122927 2.827489 -0.493802 -1.554806 -5.313827 4.340664 -2.186464 0.620775 103.910026 -81.152246 -113.965034 -1.710168 -9.504808 -11.156655 -9.184168 0.491625 -0.156092 1.270898 -4.401705 -0.717122 -120.302460 -71.928954 127.568650 17.648192 -8.519774 -3.625976 -0.101314 -45.850102 9.706045 -96.049776 83.272630 -83.610805 -0.178861 -11.199764 -5.072023 -0.290937 1.125222 -0.130396 -11.361912 -50.204623 17.659415 -146.572976 83.741586 -154.416842 0.222432 -13.055594 6.529791 -0.301601 -0.633781 -0.138166
-0.221925 50.140460 39.266464 173.441636 -34.553944 -7.189099 5.042510 18.954716 6.778682 0.535466 2.429609 0.622888 0.893789 3.975467 1.034711 4.287575 16.368622 4.815713 -1.772702 17.549293 1.213472 -3.678262 -3.213509 2.820028 -0.508452 -1.461870 -5.238582 4.316017 -2.377866 0.595457 110.079455 -82.588290 -120.045174 -1.882513 -9.375519 -11.114522 -9.227629 0.594828 -0.188077 1.330854 -4.583468 -0.744514 -122.090780 -72.297214 129.160737 17.720791 -8.034980 -3.922764 -0.120715 -45.860279 9.728604 -96.078038 83.264699 -83.649070 -0.177272 -11.202070 -5.076039 -0.278109 1.118215 -0.127951 -11.364541 -50.212622 17.664276 -146.590492 83.741893 -154.433301 0.223485 -13.056864 6.527906 -0.304050 -0.635756 -0.137174
-0.220414 50.141023 39.263177 173.446157 -34.550836 -7.185907 5.044607 18.998199 6.780913 0.532890 2.393537 0.617521 0.898376 4.008218 1.041213 4.293331 16.410728 4.824644 -1.781499 17.458030 1.204038 -3.694270 -3.308228 2.828249 -0.529126 -1.426363 -5.172688 4.287090 -2.634848 0.650987 119.071447 -83.980529 -128.917692 -2.074134 -9.209299 -11.130844 -9.291859 0.650358 -0.211954 1.407997 -4.766354 -0.783868 -124.186096 -72.708424 131.038984 17.821681 -7.541494 -4.229665 -0.136504 -45.867205 9.743194 -96.187521 83.251212 -83.765819 -0.192139 -11.207043 -5.083346 -0.243322 1.105135 -0.119550 -11.361896 -50.215663 17.656702 -146.608711 83.740373 -154.451514 0.221353 -13.057718 6.527548 -0.298330 -0.641383 -0.136167
-0.218079 50.140820 39.258411 173.447449 -34.544222 -7.181856 5.050954 19.025749 6.785682 0.537624 2.431720 0.624469 0.890830 3.956834 1.030383 4.302127 16.450897 4.834708 -1.796207 17.403601 1.206008 -3.723936 -3.408456 2.838982 -0.546895 -1.357459 -5.099951 4.278049 -2.851627 0.679558 134.776281 -85.221471 -144.515519 -2.284134 -8.997666 -11.184054 -9.368726 0.749021 -0.230237 1.492193 -4.948558 -0.832852 -126.623213 -73.151914 133.236849 17.936460 -7.020083 -4.556243 -0.150512 -45.879592 9.755930 -96.323445 83.247395 -83.907793 -0.204928 -11.209375 -5.094584 -0.263989 1.088106 -0.110462 -11.366153 -50.220921 17.660651 -146.618635 83.734687 -154.469132 0.219563 -13.059937 6.529182 -0.299274 -0.645427 -0.134833
-0.215916 50.139362 39.252758 173.452456 -34.529805 -7.175761 5.047681 19.031253 6.781113 0.543895 2.459086 0.630047 0.884958 3.933981 1.025505 4.314053 16.501396 4.849095 -1.819273 17.350640 1.210868 -3.766322 -3.510993 2.848393 -0.559256 -1.289534 -5.027195 4.285294 -3.052889 0.693818 160.244333 -85.915145 -169.892290 -2.517381 -8.728827 -11.241120 -9.461417 0.850993 -0.248372 1.574043 -5.127848 -0.890415 -129.439383 -73.617327 135.793085 18.062435 -6.450929 -4.935398 -0.161431 -45.899567 9.753447 -96.500548 83.252295 -84.083649 -0.215148 -11.216831 -5.110137 -0.221365 1.069055 -0.101848 -11.372648 -50.237305 17.662416 -146.540801 83.717779 -154.403375 0.234886 -13.061419 6.536411 -0.305633 -0.652460 -0.136255
